<svg width="55" height="55" viewBox="0 0 55 55" fill="none" xmlns="http://www.w3.org/2000/svg">
<path d="M25.208 38.9583H29.7913V29.7916H38.958V25.2083H29.7913V16.0416H25.208V25.2083H16.0413V29.7916H25.208V38.9583ZM27.4997 50.4166C24.3295 50.4166 21.3504 49.815 18.5622 48.6119C15.774 47.4088 13.3486 45.776 11.2861 43.7135C9.22363 41.651 7.59082 39.2256 6.3877 36.4374C5.18457 33.6492 4.58301 30.6701 4.58301 27.4999C4.58301 24.3298 5.18457 21.3506 6.3877 18.5624C7.59082 15.7742 9.22363 13.3489 11.2861 11.2864C13.3486 9.22388 15.774 7.59106 18.5622 6.38794C21.3504 5.18481 24.3295 4.58325 27.4997 4.58325C30.6698 4.58325 33.649 5.18481 36.4372 6.38794C39.2254 7.59106 41.6507 9.22388 43.7132 11.2864C45.7757 13.3489 47.4085 15.7742 48.6117 18.5624C49.8148 21.3506 50.4163 24.3298 50.4163 27.4999C50.4163 30.6701 49.8148 33.6492 48.6117 36.4374C47.4085 39.2256 45.7757 41.651 43.7132 43.7135C41.6507 45.776 39.2254 47.4088 36.4372 48.6119C33.649 49.815 30.6698 50.4166 27.4997 50.4166ZM27.4997 45.8333C32.6177 45.8333 36.9528 44.0572 40.5049 40.5051C44.057 36.953 45.833 32.618 45.833 27.4999C45.833 22.3819 44.057 18.0468 40.5049 14.4947C36.9528 10.9426 32.6177 9.16658 27.4997 9.16658C22.3816 9.16658 18.0465 10.9426 14.4945 14.4947C10.9424 18.0468 9.16634 22.3819 9.16634 27.4999C9.16634 32.618 10.9424 36.953 14.4945 40.5051C18.0465 44.0572 22.3816 45.8333 27.4997 45.8333Z" fill="white"/>
</svg>
